<svg width="25" height="32" viewBox="0 0 25 32" fill="none" xmlns="http://www.w3.org/2000/svg">
<g clip-path="url(#clip0_73_127)">
<path fill-rule="evenodd" clip-rule="evenodd" d="M17.5 7H7C6.17157 7 5.5 7.67157 5.5 8.5V25C5.50014 25.2726 5.64815 25.5236 5.88659 25.6557C6.12503 25.7878 6.41636 25.7801 6.6475 25.6356L12.25 22.1341L17.8534 25.6356C18.0845 25.7796 18.3755 25.787 18.6136 25.655C18.8518 25.523 18.9997 25.2723 19 25V8.5C19 7.67157 18.3284 7 17.5 7ZM17.5 8.5V19.1472L12.6466 16.1144C12.4034 15.9624 12.0948 15.9624 11.8516 16.1144L7 19.1462V8.5H17.5ZM12.6466 20.6144C12.4034 20.4624 12.0948 20.4624 11.8516 20.6144L7 23.6472V20.9153L12.25 17.6341L17.5 20.9153V23.6472L12.6466 20.6144Z" fill="#A1824A"/>
</g>
<defs>
<clipPath id="clip0_73_127">
<rect width="24" height="24" fill="white" transform="translate(0.25 4)"/>
</clipPath>
</defs>
</svg>
