<svg width="40" height="32" viewBox="0 0 40 32" fill="none" xmlns="http://www.w3.org/2000/svg">
<path d="M19.9999 12.2245C16.1209 12.2245 12.9648 15.3808 12.9648 19.2597C12.9648 23.1385 16.1209 26.2948 19.9999 26.2948C23.8789 26.2948 27.035 23.1385 27.035 19.2597C27.035 15.3808 23.8789 12.2245 19.9999 12.2245Z" fill="white"/>
<path d="M36.0715 7.36774H35.5559V5.748C35.5559 4.57611 34.6067 3.62629 33.4349 3.62629H29.677C28.505 3.62629 27.556 4.57611 27.556 5.748V7.36774H14.9361V5.6484C14.9361 2.99727 12.7864 0.848267 10.1355 0.848267H4.80069C2.14973 0.848267 0 2.99735 0 5.6484V27.2232C0 29.3924 1.75904 31.1516 3.92834 31.1516H36.0715C38.2409 31.1516 39.9999 29.3924 39.9999 27.2232V11.2962C40 9.12679 38.241 7.36774 36.0715 7.36774ZM3.99992 5.6484C3.99992 5.20698 4.35928 4.84819 4.80069 4.84819H10.1355C10.5767 4.84819 10.936 5.2069 10.936 5.6484V7.33586H3.99992V5.6484ZM20 28.9615C14.651 28.9615 10.298 24.6093 10.298 19.2597C10.298 13.91 14.6511 9.55789 20 9.55789C25.349 9.55789 29.7018 13.91 29.7018 19.2597C29.7018 24.6093 25.349 28.9615 20 28.9615Z" fill="white"/>
</svg>
