<svg width="25" height="32" viewBox="0 0 25 32" fill="none" xmlns="http://www.w3.org/2000/svg">
<g clip-path="url(#clip0_73_136)">
<path fill-rule="evenodd" clip-rule="evenodd" d="M22.3988 23.875C20.9709 21.4066 18.7706 19.6366 16.2028 18.7975C18.8135 17.2433 20.0641 14.1364 19.2582 11.2069C18.4522 8.27741 15.7883 6.24745 12.75 6.24745C9.71167 6.24745 7.04779 8.27741 6.24182 11.2069C5.43585 14.1364 6.68645 17.2433 9.29719 18.7975C6.72938 19.6356 4.52906 21.4056 3.10125 23.875C2.9587 24.1074 2.95353 24.3989 3.08773 24.6363C3.22194 24.8736 3.47438 25.0194 3.74702 25.0171C4.01967 25.0147 4.26958 24.8646 4.39969 24.625C6.16594 21.5725 9.28781 19.75 12.75 19.75C16.2122 19.75 19.3341 21.5725 21.1003 24.625C21.2304 24.8646 21.4803 25.0147 21.753 25.0171C22.0256 25.0194 22.2781 24.8736 22.4123 24.6363C22.5465 24.3989 22.5413 24.1074 22.3988 23.875ZM7.5 13C7.5 10.1005 9.8505 7.75 12.75 7.75C15.6495 7.75 18 10.1005 18 13C18 15.8995 15.6495 18.25 12.75 18.25C9.85179 18.2469 7.5031 15.8982 7.5 13Z" fill="#A1824A"/>
</g>
<defs>
<clipPath id="clip0_73_136">
<rect width="24" height="24" fill="white" transform="translate(0.75 4)"/>
</clipPath>
</defs>
</svg>
