<svg xmlns="http://www.w3.org/2000/svg" width="34" height="40" fill="none" viewBox="0 0 34 40"><path stroke="#fff" stroke-width="3" d="M31.9516 25.9818L31.9519 25.9822C32.6021 26.921 32.6795 28.1317 32.1537 29.1477L32.1535 29.1479C31.729 29.9685 30.9792 30.5327 30.1105 30.7173L28.9224 30.9698V32.1845V35.4484C28.9224 36.2384 28.6178 37.0369 27.9805 37.6501L27.9794 37.6511C27.4294 38.1813 26.7013 38.5 25.908 38.5H25.8912H25.8745H25.858H25.8415H25.8252H25.8089H25.7928H25.7769H25.761H25.7452H25.7296H25.714H25.6986H25.6833H25.6681H25.653H25.6381H25.6232H25.6085H25.5938H25.5793H25.5649H25.5505H25.5363H25.5222H25.5082H25.4944H25.4806H25.4669H25.4533H25.4399H25.4265H25.4133H25.4001H25.3871H25.3741H25.3613H25.3486H25.3359H25.3234H25.3109H25.2986H25.2864H25.2742H25.2622H25.2503H25.2384H25.2267H25.215H25.2035H25.192H25.1807H25.1694H25.1583H25.1472H25.1362H25.1253H25.1146H25.1039H25.0933H25.0828H25.0723H25.062H25.0518H25.0416H25.0316H25.0216H25.0117H25.002H24.9923H24.9826H24.9731H24.9637H24.9543H24.9451H24.9359H24.9268H24.9178H24.9089H24.9H24.8913H24.8826H24.874H24.8655H24.8571H24.8488H24.8405H24.8323H24.8242H24.8162H24.8082H24.8004H24.7926H24.7849H24.7773H24.7697H24.7622H24.7548H24.7475H24.7403H24.7331H24.726H24.719H24.712H24.7051H24.6983H24.6916H24.6849H24.6784H24.6718H24.6654H24.659H24.6527H24.6465H24.6403H24.6342H24.6282H24.6222H24.6163H24.6105H24.6047H24.599H24.5934H24.5878H24.5823H24.5769H24.5715H24.5662H24.561H24.5558H24.5507H24.5456H24.5406H24.5357H24.5308H24.526H24.5212H24.5165H24.5119H24.5073H24.5028H24.4983H24.4939H24.4896H24.4853H24.481H24.4768H24.4727H24.4686H24.4646H24.4606H24.4567H24.4529H24.4491H24.4453H24.4416H24.4379H24.4343H24.4308H24.4273H24.4238H24.4204H24.417H24.4137H24.4105H24.4072H24.4041H24.401H24.3979H24.3948H24.3919H24.3889H24.386H24.3832H24.3803H24.3776H24.3749H24.3722H24.3695H24.3669H24.3644H24.3618H24.3594H24.3569H24.3545H24.3521H24.3498H24.3475H24.3453H24.3431H24.3409H24.3387H24.3366H24.3346H24.3325H24.3305H24.3286H24.3266H24.3247H24.3228H24.321H24.3192H24.3174H24.3157H24.314H24.3123H24.3106H24.309H24.3074H24.3058H24.3043H24.3028H24.3013H24.2998H24.2984H24.297H24.2956H24.2942H24.2929H24.2916H24.2903H24.289H24.2878H24.2866H24.2854H24.2842H24.2831H24.2819H24.2808H24.2797H24.2786H24.2776H24.2765H24.2755H24.2745H24.2735H24.2726H24.2716H24.2707H24.2697H24.2688H24.2679H24.2671H24.2662H24.2653H24.2645H24.2637H24.2629H24.2621H24.2613H24.2605H24.2597H24.259H24.2582H24.2575H24.2567H24.256H24.2553H24.2546H24.2539H24.2532H24.2525H24.2518H24.2511H24.2504H24.2497H24.2491H24.2484H24.2477H24.2471H24.2464H24.2457H24.2451H24.2444H24.2438H24.2431H24.2425H24.2418H24.2411H24.2405H24.2398H24.2391H24.2385H24.2378H24.2371H24.2364H24.2358H24.2351H24.2344H24.2337H24.233H24.2322H24.2315H24.2308H24.23H24.2293H24.2285H24.2278H24.227H24.2262H24.2254H24.2246H24.2238H24.2229H24.2221H24.2212H24.2203H24.2195H24.2186H24.2176H24.2167H24.2158H24.2148H24.2138H24.2128H24.2118H24.2108H24.2097H24.2086H24.2076H24.2064H24.2053H24.2042H24.203H24.2018H24.2006H24.1994H24.1981H24.1968H24.1955H24.1942H24.1929H24.1915H24.1901H24.1887H24.1872H24.1857H24.1842H24.1827H24.1811H24.1795H24.1779H24.1763H24.1746H24.1729H24.1712H24.1694H24.1676H24.1658H24.1639H24.162H24.1601H24.1582H24.1562H24.1541H24.1521H24.15H24.1479H24.1457H24.1435H24.1412H24.139H24.1367H24.1343H24.1319H24.1295H24.127H24.1245H24.122H24.1194H24.1167H24.1141H24.1114H24.1086H24.1058H24.103H24.1001H24.0972H24.0942H24.0912H24.0881H24.085H24.0819H24.0786H24.0754H24.0721H24.0688H24.0654H24.0619H24.0584H24.0549H24.0513H24.0477H24.044H24.0403H24.0365H24.0326H24.0287H24.0248H24.0208H24.0167H24.0126H24.0084H24.0042H23.9999H23.9956H23.9912H23.9868H23.9823H23.9777H23.9731H23.9684H23.9637H23.9589H23.954H23.9491H23.9441H23.9391H23.934H23.9288H23.9236H23.9183H23.913H23.9076H23.9021H23.8965H23.8909H23.8853H23.8795H23.8737H23.8678H23.8619H23.8559H23.8498H23.8437H23.8375H23.8312H23.8248H23.8184H23.8119H23.8054H23.7987H23.792H23.7852H23.7784H23.7715H23.7645H23.7574H23.7502H23.743H23.7357H23.7284H23.7209H23.7134H23.7058H23.6981H23.6903H23.6825H23.6746H23.6666H23.6585H23.6504H23.6421H23.6338H23.6254H23.617H23.6084H23.5998H23.591H23.5822H23.5733H23.5644H23.5553H23.5461H23.5369H23.5276H23.5182H23.5087H23.4991H23.4895H23.4797H23.4699H23.4599H23.4499H23.4398H23.4296H23.4193H23.4089H23.3984H23.3879H23.3772H23.3664H23.3556H23.3447H23.3336H23.3225H23.3113H23.2999H23.2885H23.277H23.2654H23.2537H23.2419H23.23H23.218H23.2059H23.1937H23.1814H23.169H23.1565H23.1439H23.1312C22.3372 38.5 21.6116 38.1818 21.0611 37.6511L21.0585 37.6486C20.9574 37.5516 20.8515 37.4258 20.7206 37.2496L20.2708 36.6439H19.5164H16.3072H3.43386C2.38031 36.6439 1.5 35.7739 1.5 34.6818V3.46215C1.5 2.37 2.38023 1.5 3.43386 1.5H21.0139C21.1504 1.5 21.2745 1.5507 21.3743 1.65125L27.2156 7.54124L27.2166 7.54231C27.3171 7.64345 27.372 7.77379 27.372 7.9226V16.2873V17.2133V18.8962V19.3647L27.6386 19.7499L31.9516 25.9818ZM10.9085 35.3012H12.4085V35.3011H17.7852H18.6168H20.1168V33.8011V32.1845V30.9698L18.9285 30.7173C18.0598 30.5327 17.3101 29.9685 16.8856 29.148L16.8854 29.1475C16.3594 28.1317 16.4369 26.921 17.0872 25.9822L17.0876 25.9816L22.06 18.7952C22.0606 18.7943 22.0612 18.7934 22.0618 18.7925C22.6741 17.919 23.6231 17.501 24.5879 17.5238L26.1234 17.5601V17.521H26.144V16.021V10.613V9.11303H24.644H20.8654C20.3592 9.11303 19.9243 8.69216 19.9243 8.15179V4.34272V2.84272H18.4243H4.22781H2.72781V4.34272V33.8012V35.3012H4.22781H10.9085ZM31.6507 28.8642L31.6532 28.8593C32.0686 28.0546 32.0108 27.0838 31.4894 26.3327C31.4893 26.3326 31.4892 26.3324 31.4891 26.3323L26.5269 19.1596L26.5251 19.157C26.0701 18.5023 25.3224 18.1069 24.5201 18.1069H24.5188C23.7167 18.1069 22.9689 18.5021 22.5138 19.1568L22.5118 19.1596L17.55 26.332C17.5498 26.3324 17.5495 26.3328 17.5492 26.3332C17.0278 27.0845 16.9705 28.055 17.3857 28.8593L17.3879 28.8636C17.8062 29.6676 18.6349 30.1822 19.5538 30.1822H19.5551H20.6874V35.4485C20.6874 36.7909 21.7719 37.8986 23.1297 37.8986H23.1311H25.9078H25.9092C27.2671 37.8986 28.3514 36.7906 28.3514 35.4485V30.1822H29.4837H29.485C30.4043 30.1822 31.2324 29.6673 31.6507 28.8642Z"/></svg>